<svg width="22" height="24" viewBox="0 0 22 24" fill="none" xmlns="http://www.w3.org/2000/svg">
<path d="M13.5 9.875C13.5 9.875 14.125 11.125 14.125 13.625C14.125 16.125 13.5 17.375 13.5 17.375M8.5 9.875C8.5 9.875 7.875 11.125 7.875 13.625C7.875 16.125 8.5 17.375 8.5 17.375M3.49999 5.5C3.49999 12.8234 1.78883 23 11 23C20.2111 23 18.5 12.8234 18.5 5.5M1 5.5H21M14.75 5.5V4.25C14.75 2.0312 12.7034 1.75 11 1.75C9.29663 1.75 7.25 2.0312 7.25 4.25V5.5" stroke="#F87171" stroke-width="1.875" stroke-linecap="round" stroke-linejoin="round"/>
</svg>
