<svg width="68" height="51" viewBox="0 0 68 51" fill="none" xmlns="http://www.w3.org/2000/svg">
<g filter="url(#filter0_dd_5109_1612)">
<rect x="10.457" y="6" width="46.6143" height="30.0304" rx="5.37857" fill="white"/>
<rect x="9.95703" y="5.5" width="47.6143" height="31.0304" rx="5.87857" stroke="#383B42"/>
<path d="M32.7514 24.6142H31.703V16.4559H34.4825C35.1869 16.4559 35.7876 16.6907 36.279 17.1604C36.7814 17.63 37.0326 18.2033 37.0326 18.8805C37.0326 19.574 36.7814 20.1473 36.279 20.6115C35.793 21.0757 35.1924 21.305 34.4825 21.305H32.7514V24.6142ZM32.7514 17.4607V20.3057H34.5043C34.9193 20.3057 35.2688 20.1637 35.5418 19.8852C35.8203 19.6067 35.9623 19.2682 35.9623 18.8859C35.9623 18.5091 35.8203 18.176 35.5418 17.8975C35.2688 17.6081 34.9248 17.4662 34.5043 17.4662H32.7514V17.4607Z" fill="#3C4043"/>
<path d="M39.7737 18.8477C40.5491 18.8477 41.1607 19.0552 41.6085 19.4702C42.0563 19.8852 42.2802 20.4531 42.2802 21.174V24.6142H41.2809V23.8388H41.2372C40.8058 24.4777 40.227 24.7944 39.5062 24.7944C38.8891 24.7944 38.3758 24.6142 37.9608 24.2483C37.5458 23.8824 37.3383 23.4292 37.3383 22.8831C37.3383 22.3043 37.5567 21.8456 37.9936 21.5071C38.4304 21.163 39.0147 20.9938 39.741 20.9938C40.3635 20.9938 40.8768 21.1084 41.2754 21.3378V21.0975C41.2754 20.7316 41.1334 20.4258 40.844 20.1692C40.5546 19.9125 40.216 19.7869 39.8283 19.7869C39.2441 19.7869 38.7799 20.0327 38.4413 20.5296L37.5185 19.9508C38.0263 19.2136 38.7799 18.8477 39.7737 18.8477ZM38.4195 22.8995C38.4195 23.1726 38.5342 23.4019 38.769 23.5821C38.9983 23.7623 39.2714 23.8551 39.5826 23.8551C40.0249 23.8551 40.4181 23.6913 40.7621 23.3637C41.1061 23.036 41.2809 22.6538 41.2809 22.2115C40.9532 21.9548 40.5 21.8238 39.9157 21.8238C39.4898 21.8238 39.1348 21.9275 38.8509 22.1296C38.5615 22.3425 38.4195 22.5992 38.4195 22.8995Z" fill="#3C4043"/>
<path d="M47.9811 19.028L44.4863 27.0661H43.4051L44.7048 24.2538L42.4004 19.028H43.5416L45.2017 23.0361H45.2235L46.8399 19.028H47.9811Z" fill="#3C4043"/>
<path d="M28.5811 20.6443C28.5811 20.3024 28.5505 19.9753 28.4937 19.6608H24.099V21.4628L26.63 21.4634C26.5273 22.063 26.197 22.5741 25.6908 22.9148V24.084H27.1974C28.0771 23.2698 28.5811 22.0662 28.5811 20.6443Z" fill="#4285F4"/>
<path d="M25.6913 22.9149C25.2719 23.1977 24.7319 23.3632 24.1001 23.3632C22.8796 23.3632 21.8443 22.5408 21.4735 21.4323H19.9194V22.638C20.6893 24.1659 22.2718 25.2144 24.1001 25.2144C25.3637 25.2144 26.4252 24.7988 27.1979 24.0835L25.6913 22.9149Z" fill="#34A853"/>
<path d="M21.3271 20.5378C21.3271 20.2265 21.379 19.9256 21.4734 19.6428V18.4371H19.9193C19.601 19.0689 19.4219 19.782 19.4219 20.5378C19.4219 21.2935 19.6015 22.0067 19.9193 22.6385L21.4734 21.4328C21.379 21.1499 21.3271 20.849 21.3271 20.5378Z" fill="#FABB05"/>
<path d="M24.1001 17.7119C24.7897 17.7119 25.4073 17.9494 25.895 18.4136L27.2301 17.0795C26.4192 16.3243 25.362 15.8607 24.1001 15.8607C22.2724 15.8607 20.6893 16.9092 19.9193 18.4371L21.4734 19.6428C21.8442 18.5343 22.8796 17.7119 24.1001 17.7119Z" fill="#E94235"/>
</g>
<defs>
<filter id="filter0_dd_5109_1612" x="0.492745" y="0.517857" width="66.5438" height="49.959" filterUnits="userSpaceOnUse" color-interpolation-filters="sRGB">
<feFlood flood-opacity="0" result="BackgroundImageFix"/>
<feColorMatrix in="SourceAlpha" type="matrix" values="0 0 0 0 0 0 0 0 0 0 0 0 0 0 0 0 0 0 127 0" result="hardAlpha"/>
<feOffset dy="0.448214"/>
<feGaussianBlur stdDeviation="2.24107"/>
<feColorMatrix type="matrix" values="0 0 0 0 0.717647 0 0 0 0 0.717647 0 0 0 0 0.717647 0 0 0 0.08 0"/>
<feBlend mode="normal" in2="BackgroundImageFix" result="effect1_dropShadow_5109_1612"/>
<feColorMatrix in="SourceAlpha" type="matrix" values="0 0 0 0 0 0 0 0 0 0 0 0 0 0 0 0 0 0 127 0" result="hardAlpha"/>
<feOffset dy="4.48214"/>
<feGaussianBlur stdDeviation="4.48214"/>
<feColorMatrix type="matrix" values="0 0 0 0 0.717647 0 0 0 0 0.717647 0 0 0 0 0.717647 0 0 0 0.08 0"/>
<feBlend mode="normal" in2="effect1_dropShadow_5109_1612" result="effect2_dropShadow_5109_1612"/>
<feBlend mode="normal" in="SourceGraphic" in2="effect2_dropShadow_5109_1612" result="shape"/>
</filter>
</defs>
</svg>
